<svg width="26" height="26" viewBox="0 0 26 26" fill="none" xmlns="http://www.w3.org/2000/svg">
<path d="M13 0C5.83183 0 0 5.83183 0 13C0 20.1676 5.83183 26 13 26C20.1676 26 26 20.1676 26 13C26 5.83183 20.1687 0 13 0ZM16.233 13.4577H14.118C14.118 16.8367 14.118 20.9961 14.118 20.9961H10.984C10.984 20.9961 10.984 16.8771 10.984 13.4577H9.4942V10.7934H10.984V9.07005C10.984 7.83582 11.5705 5.90723 14.1468 5.90723L16.4691 5.91614V8.50242C16.4691 8.50242 15.0579 8.50242 14.7835 8.50242C14.5091 8.50242 14.119 8.63961 14.119 9.22819V10.7939H16.5068L16.233 13.4577Z" fill="#2568EA"/>
</svg>
