<svg width="26" height="26" viewBox="0 0 26 26" fill="none" xmlns="http://www.w3.org/2000/svg">
<circle cx="13" cy="13" r="13" fill="#2568EA"/>
<path d="M13 5C10.8255 5 10.5545 5.0105 9.70348 5.0465C8.84898 5.0885 8.27098 5.221 7.76098 5.419C7.22721 5.62051 6.74381 5.93601 6.34448 6.3435C5.93585 6.7419 5.62017 7.22557 5.41998 7.76C5.22198 8.27 5.08948 8.848 5.04748 9.7025C5.00898 10.554 5.00098 10.8245 5.00098 12.999C5.00098 15.1735 5.01148 15.4445 5.04748 16.2955C5.08948 17.1475 5.22198 17.728 5.41998 18.238C5.62149 18.7718 5.93698 19.2552 6.34448 19.6545C6.74288 20.0631 7.22654 20.3788 7.76098 20.579C8.27098 20.7745 8.85148 20.9095 9.70348 20.9515C10.555 20.99 10.8255 20.998 13 20.998C15.1745 20.998 15.4455 20.9875 16.2965 20.9515C17.1485 20.9095 17.729 20.774 18.239 20.579C18.7727 20.3775 19.2561 20.062 19.6555 19.6545C20.0646 19.2565 20.3804 18.7727 20.58 18.238C20.7755 17.728 20.9105 17.1475 20.9525 16.2955C20.991 15.444 20.999 15.1735 20.999 12.999C20.999 10.8245 20.9885 10.5535 20.9525 9.7025C20.9105 8.8505 20.775 8.267 20.58 7.76C20.3785 7.22623 20.063 6.74283 19.6555 6.3435C19.2575 5.93434 18.7737 5.61859 18.239 5.419C17.729 5.221 17.1485 5.0885 16.2965 5.0465C15.445 5.008 15.1745 5 13 5ZM13 6.44C15.1355 6.44 15.3905 6.4505 16.2345 6.4865C17.013 6.523 17.437 6.653 17.7185 6.763C18.0665 6.89146 18.3815 7.09593 18.6405 7.3615C18.9056 7.61941 19.1093 7.93367 19.2365 8.281C19.3465 8.5625 19.4765 8.9865 19.513 9.765C19.549 10.609 19.5595 10.8645 19.5595 12.9995C19.5595 15.1345 19.549 15.39 19.51 16.234C19.468 17.0125 19.338 17.4365 19.2285 17.718C19.077 18.0935 18.908 18.356 18.629 18.64C18.3691 18.9039 18.0543 19.1074 17.707 19.236C17.429 19.346 16.999 19.476 16.2175 19.5125C15.369 19.5485 15.119 19.559 12.978 19.559C10.837 19.559 10.5875 19.5485 9.73798 19.5095C8.95948 19.4675 8.52998 19.3375 8.24848 19.228C7.86848 19.0765 7.60798 18.9075 7.32898 18.6285C7.04748 18.347 6.86848 18.079 6.73048 17.7065C6.61848 17.4285 6.49048 16.9985 6.44898 16.217C6.42048 15.3785 6.40698 15.1185 6.40698 12.9875C6.40698 10.8575 6.42048 10.597 6.44898 9.748C6.49048 8.9665 6.61848 8.5375 6.73048 8.2585C6.86848 7.878 7.04798 7.618 7.32898 7.3365C7.60748 7.058 7.86848 6.878 8.24848 6.737C8.52998 6.6275 8.94898 6.4975 9.73048 6.4585C10.579 6.428 10.829 6.417 12.967 6.417L13 6.44ZM13 8.8935C12.4606 8.8933 11.9266 8.99939 11.4283 9.20569C10.9299 9.41199 10.4772 9.71446 10.0958 10.0958C9.71444 10.4772 9.41196 10.93 9.20566 11.4283C8.99936 11.9266 8.89328 12.4607 8.89348 13C8.89328 13.5393 8.99936 14.0734 9.20566 14.5717C9.41196 15.07 9.71444 15.5228 10.0958 15.9042C10.4772 16.2855 10.9299 16.588 11.4283 16.7943C11.9266 17.0006 12.4606 17.1067 13 17.1065C13.5393 17.1067 14.0734 17.0006 14.5717 16.7943C15.07 16.588 15.5228 16.2855 15.9042 15.9042C16.2855 15.5228 16.588 15.07 16.7943 14.5717C17.0006 14.0734 17.1067 13.5393 17.1065 13C17.1067 12.4607 17.0006 11.9266 16.7943 11.4283C16.588 10.93 16.2855 10.4772 15.9042 10.0958C15.5228 9.71446 15.07 9.41199 14.5717 9.20569C14.0734 8.99939 13.5393 8.8933 13 8.8935ZM13 15.6665C11.526 15.6665 10.3335 14.474 10.3335 13C10.3335 11.526 11.526 10.3335 13 10.3335C14.474 10.3335 15.6665 11.526 15.6665 13C15.6665 14.474 14.474 15.6665 13 15.6665ZM18.232 8.7295C18.2317 8.98433 18.1303 9.22864 17.95 9.40874C17.7697 9.58884 17.5253 9.69 17.2705 9.69C17.1445 9.69 17.0197 9.66518 16.9033 9.61696C16.7869 9.56874 16.6811 9.49807 16.592 9.40897C16.5029 9.31987 16.4322 9.2141 16.384 9.09768C16.3358 8.98127 16.311 8.8565 16.311 8.7305C16.311 8.6045 16.3358 8.47973 16.384 8.36332C16.4322 8.2469 16.5029 8.14113 16.592 8.05203C16.6811 7.96293 16.7869 7.89226 16.9033 7.84404C17.0197 7.79582 17.1445 7.771 17.2705 7.771C17.799 7.771 18.232 8.201 18.232 8.7295Z" fill="white"/>
</svg>
