<svg width="26" height="26" viewBox="0 0 26 26" fill="none" xmlns="http://www.w3.org/2000/svg">
<g clip-path="url(#clip0)">
<path d="M13 0C5.83183 0 0 5.63904 0 12.5702C0 19.5009 5.83183 25.1405 13 25.1405C20.1676 25.1405 26 19.5009 26 12.5702C26 5.63904 20.1687 0 13 0ZM18.7994 9.69326C18.8051 9.81782 18.8083 9.94339 18.8083 10.069C18.8083 13.8923 15.7994 18.2994 10.2943 18.2994C8.60453 18.2994 7.0315 17.8219 5.70773 17.0007C5.94179 17.0275 6.18005 17.0412 6.42145 17.0412C7.82377 17.0412 9.11351 16.5784 10.1378 15.8027C8.82865 15.7794 7.72323 14.9429 7.34254 13.793C7.52477 13.8265 7.71276 13.8452 7.90494 13.8452C8.17776 13.8452 8.44272 13.8108 8.69355 13.7444C7.32474 13.4791 6.29368 12.31 6.29368 10.9074C6.29368 10.8953 6.29368 10.8826 6.29421 10.871C6.69741 11.0872 7.15875 11.2178 7.64888 11.2325C6.84665 10.7145 6.3183 9.82845 6.3183 8.8249C6.3183 8.29426 6.46544 7.79704 6.72307 7.36969C8.19818 9.12059 10.4038 10.272 12.89 10.3935C12.8387 10.1814 12.8131 9.96111 12.8131 9.73377C12.8131 8.13628 14.1525 6.84057 15.8046 6.84057C16.6655 6.84057 17.4421 7.19197 17.9888 7.754C18.6711 7.62438 19.3099 7.38438 19.8896 7.05171C19.6644 7.72767 19.1916 8.29426 18.5721 8.65274C19.178 8.58287 19.7561 8.42793 20.2907 8.19755C19.8917 8.77679 19.3843 9.28667 18.7994 9.69326Z" fill="#2568EA"/>
</g>
<defs>
<clipPath id="clip0">
<rect width="26" height="25.1405" fill="white"/>
</clipPath>
</defs>
</svg>
